<svg xmlns="http://www.w3.org/2000/svg" xmlns:xlink="http://www.w3.org/1999/xlink" width="500" zoomAndPan="magnify" viewBox="0 0 375 374.999991" height="500" preserveAspectRatio="xMidYMid meet" version="1.0"><defs><g/></defs><g fill="#ff1c00" fill-opacity="1"><g transform="translate(103.982868, 214.173117)"><g><path d="M 48.292969 -35.601562 L 48.292969 -88.25 C 48.292969 -91.09375 48.859375 -98.667969 58.519531 -98.667969 L 126.316406 -98.667969 C 135.597656 -98.667969 148.851562 -96.394531 157.375 -85.601562 L 157.375 -93.742188 C 157.375 -111.546875 142.980469 -125.9375 125.179688 -125.9375 L 41.664062 -125.9375 C 23.863281 -125.9375 9.46875 -111.546875 9.46875 -93.742188 L 9.46875 -56.8125 C 9.46875 -42.609375 21.96875 -35.601562 31.625 -35.601562 Z M 157.375 -32.003906 L 157.375 -58.707031 C 157.375 -79.730469 146.390625 -90.523438 126.316406 -90.523438 L 118.550781 -90.523438 L 118.550781 -37.496094 C 118.550781 -34.847656 117.984375 -27.269531 108.324219 -27.269531 L 31.625 -27.460938 C 25.1875 -27.460938 14.960938 -30.113281 9.46875 -36.929688 L 9.46875 -32.003906 C 9.46875 -14.394531 24.050781 0 41.664062 0 L 100.371094 0 L 117.605469 16.285156 L 160.785156 16.285156 L 141.277344 -4.355469 C 150.9375 -10.039062 157.375 -20.265625 157.375 -32.003906 Z M 157.375 -32.003906 "/></g></g></g><g fill="#ff1c00" fill-opacity="1"><g transform="translate(37.735556, 296.000786)"><g><path d="M 14.679688 -10.824219 L 14.679688 -26.828125 C 14.679688 -27.691406 14.851562 -29.992188 17.789062 -29.992188 L 38.398438 -29.992188 C 41.21875 -29.992188 45.246094 -29.300781 47.839844 -26.019531 L 47.839844 -28.496094 C 47.839844 -33.90625 43.464844 -38.28125 38.050781 -38.28125 L 12.664062 -38.28125 C 7.253906 -38.28125 2.878906 -33.90625 2.878906 -28.496094 L 2.878906 -17.269531 C 2.878906 -12.953125 6.679688 -10.824219 9.613281 -10.824219 Z M 47.839844 -9.730469 L 47.839844 -17.847656 C 47.839844 -24.234375 44.5 -27.515625 38.398438 -27.515625 L 36.035156 -27.515625 L 36.035156 -11.398438 C 36.035156 -10.59375 35.863281 -8.289062 32.929688 -8.289062 L 9.613281 -8.347656 C 7.65625 -8.347656 4.546875 -9.152344 2.878906 -11.226562 L 2.878906 -9.730469 C 2.878906 -4.375 7.3125 0 12.664062 0 L 30.511719 0 L 35.75 4.949219 L 48.875 4.949219 L 42.945312 -1.324219 C 45.882812 -3.050781 47.839844 -6.160156 47.839844 -9.730469 Z M 47.839844 -9.730469 "/></g></g></g><g fill="#ff1c00" fill-opacity="1"><g transform="translate(86.318187, 296.000786)"><g><path d="M 2.9375 -38.28125 L 2.9375 -19.113281 L 2.992188 -19.113281 C 3.511719 -13.644531 6.273438 -10.824219 11.226562 -10.824219 L 14.738281 -10.824219 L 14.738281 -38.28125 Z M 47.839844 -9.730469 L 47.839844 -38.28125 L 36.035156 -38.28125 L 36.035156 -9.730469 C 36.035156 -8.921875 35.347656 -8.289062 34.539062 -8.289062 L 11.226562 -8.289062 C 8.75 -8.347656 5.296875 -8.980469 2.9375 -11.972656 L 2.9375 -9.730469 C 2.9375 -4.375 7.367188 0 12.664062 0 L 38.050781 0 C 43.40625 0 47.839844 -4.375 47.839844 -9.730469 Z M 47.839844 -9.730469 "/></g></g></g><g fill="#ff1c00" fill-opacity="1"><g transform="translate(134.843266, 296.000786)"><g><path d="M 2.878906 -29.992188 L 14.679688 -29.992188 L 14.679688 -38.28125 L 2.878906 -38.28125 Z M 2.878906 -0.0585938 L 14.679688 -0.0585938 L 14.679688 -27.515625 L 2.878906 -27.515625 Z M 2.878906 -0.0585938 "/></g></g></g><g fill="#ff1c00" fill-opacity="1"><g transform="translate(150.269646, 296.000786)"><g><path d="M 17.847656 -8.289062 C 14.851562 -8.289062 14.738281 -10.59375 14.738281 -11.398438 L 14.738281 -27.515625 L 12.320312 -27.515625 C 6.273438 -27.515625 2.9375 -24.234375 2.9375 -17.847656 L 2.9375 -9.730469 C 2.9375 -4.375 7.3125 0 12.664062 0 L 36.382812 0 C 41.160156 0 45.304688 -3.570312 46.054688 -8.289062 Z M 36.382812 -38.28125 L 12.664062 -38.28125 C 7.3125 -38.28125 2.9375 -33.90625 2.9375 -28.496094 L 2.9375 -26.078125 C 5.527344 -29.300781 9.5 -29.992188 12.320312 -29.992188 L 46.054688 -29.992188 C 45.304688 -34.65625 41.277344 -38.28125 36.382812 -38.28125 Z M 36.382812 -38.28125 "/></g></g></g><g fill="#ff1c00" fill-opacity="1"><g transform="translate(197.010263, 296.000786)"><g><path d="M 20.667969 -22.679688 L 20.722656 -22.738281 C 20.722656 -22.738281 20.667969 -22.679688 20.667969 -22.679688 Z M 17.097656 -22.679688 L 14.738281 -22.679688 L 14.738281 -38.28125 L 2.9375 -38.28125 L 2.9375 -17.269531 L 3.855469 -17.269531 C 8.230469 -17.269531 11.800781 -17.730469 17.097656 -22.679688 Z M 49.21875 -38.167969 L 49.105469 -38.28125 L 34.828125 -38.28125 L 20.667969 -22.679688 C 13.644531 -15.429688 9.152344 -14.792969 3.855469 -14.792969 L 2.9375 -14.792969 L 2.9375 0 L 14.738281 0 L 14.738281 -14.390625 L 20.667969 -14.390625 L 33.734375 0 L 48.242188 0 L 31.433594 -18.535156 Z M 49.21875 -38.167969 "/></g></g></g><g fill="#ff1c00" fill-opacity="1"><g transform="translate(244.614334, 296.000786)"><g><path d="M 11.570312 -10.878906 L 14.621094 -10.878906 L 14.621094 -38.28125 L 2.878906 -38.28125 L 2.878906 -18.421875 C 3.625 -13.414062 6.503906 -10.878906 11.570312 -10.878906 Z M 11.570312 -8.347656 C 8.980469 -8.40625 5.355469 -9.039062 2.878906 -11.972656 L 2.878906 -0.0585938 L 35.117188 -0.0585938 C 40.988281 -0.0585938 44.328125 -4.777344 44.671875 -8.347656 Z M 11.570312 -8.347656 "/></g></g></g><g fill="#ff1c00" fill-opacity="1"><g transform="translate(288.822182, 296.000786)"><g><path d="M 22.796875 -24.867188 L 13.699219 -38.28125 L 1.785156 -38.28125 L 12.664062 -22.910156 C 13.929688 -21.355469 15.023438 -20.898438 16.925781 -20.898438 C 19.574219 -20.898438 21.355469 -22.335938 22.796875 -24.867188 Z M 46.628906 -38.28125 L 34.769531 -38.28125 L 23.429688 -21.472656 C 21.816406 -19.457031 19.976562 -18.480469 17.386719 -18.480469 C 16.292969 -18.480469 15.660156 -18.710938 15.660156 -18.710938 L 18.59375 -14.621094 L 18.59375 0 L 29.820312 0 L 29.820312 -14.621094 Z M 46.628906 -38.28125 "/></g></g></g></svg>