<?xml version="1.0" standalone="no"?>
<!DOCTYPE svg PUBLIC "-//W3C//DTD SVG 20010904//EN"
 "http://www.w3.org/TR/2001/REC-SVG-20010904/DTD/svg10.dtd">
<svg version="1.0" xmlns="http://www.w3.org/2000/svg"
 width="500.000000pt" height="500.000000pt" viewBox="0 0 500.000000 500.000000"
 preserveAspectRatio="xMidYMid meet">

<g transform="translate(0.000000,500.000000) scale(0.100000,-0.100000)"
fill="#000000" stroke="none">
<path d="M2250 4505 c-202 -25 -353 -66 -539 -146 -452 -194 -815 -538 -1026
-973 -278 -571 -274 -1211 10 -1785 274 -552 787 -947 1399 -1077 166 -35 511
-45 685 -20 338 50 648 178 922 382 431 321 719 805 794 1334 19 136 19 398 0
542 -59 444 -257 848 -569 1162 -331 332 -765 539 -1225 586 -134 13 -319 11
-451 -5z m589 -39 c547 -103 1011 -407 1313 -861 411 -617 447 -1413 92 -2055
-203 -369 -508 -657 -887 -840 -551 -267 -1180 -265 -1733 5 -598 291 -1007
858 -1099 1521 -22 152 -16 496 9 619 44 213 100 377 190 553 295 575 837 963
1491 1067 121 19 505 14 624 -9z"/>
<path d="M1912 3575 c-77 -39 -108 -70 -150 -149 l-27 -51 0 -272 0 -271 30
-44 c20 -28 49 -52 84 -70 50 -25 65 -28 162 -28 l108 0 3 295 3 295 28 27 27
28 428 0 c420 0 428 -1 484 -23 31 -12 76 -38 101 -57 25 -19 49 -35 53 -35
12 0 -8 134 -27 186 -26 70 -85 133 -155 169 l-59 30 -511 3 -510 3 -72 -36z"/>
<path d="M2850 2956 l0 -298 -29 -29 -29 -29 -446 0 c-482 0 -495 1 -576 56
l-35 24 -3 -43 c-7 -103 77 -230 187 -284 l56 -28 344 -3 344 -3 91 -85 90
-84 213 0 c117 0 213 3 213 6 0 4 -42 51 -94 105 l-95 98 63 63 c93 93 101
123 101 373 0 237 -12 290 -76 360 -54 59 -120 85 -230 92 l-89 6 0 -297z"/>
<path d="M1028 1855 c-40 -23 -48 -45 -48 -139 0 -101 15 -126 75 -126 l35 0
0 81 c0 121 -3 119 146 119 86 0 135 -4 159 -14 34 -15 35 -14 35 9 0 13 -11
37 -24 52 l-24 28 -164 2 c-130 2 -168 0 -190 -12z"/>
<path d="M1480 1755 c0 -110 1 -117 25 -140 15 -16 36 -25 55 -25 l30 0 0 140
0 140 -55 0 -55 0 0 -115z"/>
<path d="M1818 1718 l-3 -153 -138 -3 c-106 -2 -146 1 -168 12 -28 14 -29 14
-29 -11 0 -14 13 -37 29 -54 l29 -29 167 0 167 0 29 29 29 29 0 166 0 166 -55
0 -54 0 -3 -152z"/>
<path d="M1980 1830 l0 -40 55 0 55 0 0 40 0 40 -55 0 -55 0 0 -40z"/>
<path d="M2188 1855 c-31 -17 -48 -44 -48 -74 0 -19 2 -19 35 -5 26 10 80 14
215 14 195 0 205 3 154 51 -24 23 -32 24 -177 26 -121 2 -158 0 -179 -12z"/>
<path d="M2620 1765 l0 -105 31 0 c33 0 111 41 91 48 -8 2 -12 31 -12 83 l0
79 -55 0 -55 0 0 -105z"/>
<path d="M2920 1843 c-52 -67 -175 -186 -206 -199 -18 -8 -47 -14 -64 -14
l-30 0 0 -75 0 -75 55 0 54 0 3 73 c3 72 3 72 33 75 26 3 38 -6 100 -73 l70
-76 68 3 67 3 -80 89 c-44 48 -80 91 -80 95 0 3 38 47 85 98 47 50 85 94 85
97 0 3 -31 6 -69 6 -64 0 -71 -2 -91 -27z"/>
<path d="M3110 1755 c0 -110 1 -117 25 -140 15 -16 36 -25 55 -25 l30 0 0 140
0 140 -55 0 -55 0 0 -115z"/>
<path d="M3560 1864 c0 -3 25 -42 56 -85 50 -72 59 -79 88 -79 62 0 65 22 11
100 l-48 70 -54 0 c-29 0 -53 -3 -53 -6z"/>
<path d="M3863 1830 c-95 -137 -114 -160 -133 -160 -22 0 -35 -16 -20 -25 5
-3 10 -42 10 -86 l0 -79 55 0 55 0 0 73 0 72 85 119 c47 66 85 121 85 123 0 1
-24 3 -54 3 -53 0 -56 -2 -83 -40z"/>
<path d="M1320 1672 c0 -55 -4 -92 -12 -100 -15 -15 -264 -17 -302 -2 -23 8
-26 7 -26 -11 0 -11 13 -34 29 -50 29 -29 31 -29 139 -29 103 0 112 -2 140
-25 25 -21 40 -25 93 -25 l63 0 -28 29 -28 30 21 27 c17 22 21 40 21 106 0 92
-8 112 -51 127 -58 20 -59 19 -59 -77z"/>
<path d="M1980 1620 l0 -140 55 0 55 0 0 140 0 140 -55 0 -55 0 0 -140z"/>
<path d="M2184 1746 c-40 -17 -44 -30 -44 -128 0 -75 2 -81 29 -109 l29 -29
155 0 c153 0 156 0 186 26 58 49 47 54 -117 54 -102 0 -152 4 -160 12 -8 8
-12 45 -12 100 0 98 -3 101 -66 74z"/>
<path d="M3110 1534 l0 -54 181 0 181 0 29 29 c16 16 29 34 29 40 0 8 -59 11
-182 11 -139 0 -190 4 -210 14 l-28 15 0 -55z"/>
</g>
</svg>
